<svg id="Layer_1" data-name="Layer 1" xmlns="http://www.w3.org/2000/svg" xmlns:xlink="http://www.w3.org/1999/xlink" viewBox="0 0 412.5 157.93"><defs><style>.cls-1{fill:none;}.cls-2{fill:#eb2227;}.cls-3{fill:#595a5c;}.cls-4{clip-path:url(#clip-path);}.cls-5,.cls-7,.cls-8{opacity:0.2;}.cls-5{fill:url(#linear-gradient);}.cls-6{clip-path:url(#clip-path-2);}.cls-7{fill:url(#linear-gradient-2);}.cls-8{fill:url(#linear-gradient-3);}</style><clipPath id="clip-path" transform="translate(-168 -227.07)"><circle class="cls-1" cx="270.91" cy="308.26" r="15.7"/></clipPath><linearGradient id="linear-gradient" x1="100.73" y1="41.18" x2="191.85" y2="93.79" gradientUnits="userSpaceOnUse"><stop offset="0" stop-color="#fff"/><stop offset="0.01" stop-color="#fff" stop-opacity="0.96"/><stop offset="0.05" stop-color="#fff" stop-opacity="0.78"/><stop offset="0.09" stop-color="#fff" stop-opacity="0.61"/><stop offset="0.14" stop-color="#fff" stop-opacity="0.47"/><stop offset="0.2" stop-color="#fff" stop-opacity="0.34"/><stop offset="0.25" stop-color="#fff" stop-opacity="0.23"/><stop offset="0.32" stop-color="#fff" stop-opacity="0.15"/><stop offset="0.4" stop-color="#fff" stop-opacity="0.08"/><stop offset="0.49" stop-color="#fff" stop-opacity="0.03"/><stop offset="0.63" stop-color="#fff" stop-opacity="0.01"/><stop offset="1" stop-color="#fff" stop-opacity="0"/></linearGradient><clipPath id="clip-path-2" transform="translate(-168 -227.07)"><path class="cls-1" d="M274.52,365.58c1.26-4,3.76-18.16-1.48-24.61-6.18-7.6-9.5-9.86-19.24-15s-12.95-7.84-17-13.07a36.68,36.68,0,0,1-5.7-12s-6.29,22.1-3.21,33.5,9,16.46,7.13,17.24a22.82,22.82,0,0,1-3.52.77,32.34,32.34,0,1,1,11.71-62.78,15.24,15.24,0,0,0,20.19-14.45c0-5.08-1.34-11.58-11.23-14.67-9.51-2.83-15.13-3.16-19.89-3.16a62.72,62.72,0,1,0,41.16,110A4,4,0,0,0,274.52,365.58Z"/></clipPath><linearGradient id="linear-gradient-2" x1="85.15" y1="153.2" x2="85.15" y2="0" xlink:href="#linear-gradient"/><linearGradient id="linear-gradient-3" x1="42.8" y1="56.62" x2="133.91" y2="109.22" xlink:href="#linear-gradient"/></defs><title>logo-gakken-indonesia</title><path class="cls-2" d="M330.12,318.94a31.43,31.43,0,0,1-11.28-2,26.93,26.93,0,0,1-9-5.55,25.61,25.61,0,0,1-6-8.53A27,27,0,0,1,301.75,292v-.15a27,27,0,0,1,7.93-19.25,26.43,26.43,0,0,1,8.87-5.77,29.65,29.65,0,0,1,11.2-2.08,32.12,32.12,0,0,1,12,2,32.74,32.74,0,0,1,9.2,5.58l-8.49,10.2a23.36,23.36,0,0,0-5.77-3.65,17.11,17.11,0,0,0-6.81-1.27,12.37,12.37,0,0,0-5.25,1.12,13.2,13.2,0,0,0-4.21,3.05,14.64,14.64,0,0,0-2.83,4.54,14.88,14.88,0,0,0-1,5.58v.15a15.84,15.84,0,0,0,1,5.81,13.08,13.08,0,0,0,3,4.58,13.85,13.85,0,0,0,4.48,3,14.64,14.64,0,0,0,5.71,1.08,15,15,0,0,0,8.37-2.16V298H328.78V287.44h24v23.46a37.94,37.94,0,0,1-9.83,5.73A33.67,33.67,0,0,1,330.12,318.94Z" transform="translate(-168 -227.07)"/><path class="cls-2" d="M371.52,318.79a16.87,16.87,0,0,1-5.36-.82,12.63,12.63,0,0,1-4.28-2.38,11,11,0,0,1-2.87-3.87,12.9,12.9,0,0,1-1-5.36v-.15a12.48,12.48,0,0,1,1.15-5.51,10.81,10.81,0,0,1,3.2-3.95,14.61,14.61,0,0,1,5-2.38,23.84,23.84,0,0,1,6.48-.82,29.14,29.14,0,0,1,5.4.48,30.67,30.67,0,0,1,4.28,1.08v-.67a6.07,6.07,0,0,0-2-4.84q-2-1.71-6.07-1.71a26.11,26.11,0,0,0-5.81.6,38,38,0,0,0-5.29,1.64l-2.9-10a44.33,44.33,0,0,1,7.26-2.27,42,42,0,0,1,9-.86,29.07,29.07,0,0,1,9.2,1.27,15.55,15.55,0,0,1,6.14,3.65,12.76,12.76,0,0,1,3.31,5.4,24.53,24.53,0,0,1,1,7.41v23.16h-14v-4.17a15,15,0,0,1-11.84,5.06Zm5.06-8.86a7.17,7.17,0,0,0,5.06-1.79,6.26,6.26,0,0,0,1.94-4.84v-1.86a13,13,0,0,0-2.49-.74,15,15,0,0,0-3-.3,7.38,7.38,0,0,0-4.8,1.38,4.45,4.45,0,0,0-1.68,3.61v.15a3.94,3.94,0,0,0,1.42,3.24A5.46,5.46,0,0,0,376.58,309.93Z" transform="translate(-168 -227.07)"/><path class="cls-2" d="M404.58,263.54H418.8v27.55l10.95-13.48h16l-14,16.16,14.37,24.13H430.56l-8.12-13.7-3.65,4.24v9.46H404.58Z" transform="translate(-168 -227.07)"/><path class="cls-2" d="M449.48,263.54H463.7v27.55l10.95-13.48h16l-14,16.16L491,317.89H475.46l-8.12-13.7-3.65,4.24v9.46H449.48Z" transform="translate(-168 -227.07)"/><path class="cls-2" d="M514.33,318.86a24,24,0,0,1-8.71-1.53,20.52,20.52,0,0,1-6.81-4.24,18.89,18.89,0,0,1-4.47-6.59,22.2,22.2,0,0,1-1.6-8.56v-.15a22.52,22.52,0,0,1,1.49-8.23,20.31,20.31,0,0,1,4.21-6.7,19.73,19.73,0,0,1,6.44-4.5,20.13,20.13,0,0,1,8.19-1.64,21.25,21.25,0,0,1,9,1.79,17.88,17.88,0,0,1,6.33,4.8,20.21,20.21,0,0,1,3.72,7,28.51,28.51,0,0,1,1.23,8.45v1.41q0,.75-.07,1.49h-27a8.3,8.3,0,0,0,3.09,5,9.35,9.35,0,0,0,5.62,1.64,11.08,11.08,0,0,0,4.65-1,15,15,0,0,0,4.28-3.13l7.82,6.48a21.75,21.75,0,0,1-7.19,6A22.06,22.06,0,0,1,514.33,318.86Zm5.81-24.42a9,9,0,0,0-2.23-5.32,6.27,6.27,0,0,0-4.77-2,5.94,5.94,0,0,0-4.62,2,10.47,10.47,0,0,0-2.38,5.32Z" transform="translate(-168 -227.07)"/><path class="cls-2" d="M539.42,277.61h14.22v5.66a24.76,24.76,0,0,1,2.13-2.46,13.72,13.72,0,0,1,2.65-2.08,14.82,14.82,0,0,1,3.24-1.45,12.88,12.88,0,0,1,3.9-.56q6.51,0,10.14,3.95t3.63,10.87v26.36H565.11V296.08a7.34,7.34,0,0,0-1.54-5.06,5.19,5.19,0,0,0-4-1.71A5.62,5.62,0,0,0,555.3,291a7,7,0,0,0-1.65,5.06v21.82H539.42Z" transform="translate(-168 -227.07)"/><path class="cls-3" d="M304.88,326.56H312V367h-7.09Z" transform="translate(-168 -227.07)"/><path class="cls-3" d="M322.08,336.49h7.09v4.78a17.19,17.19,0,0,1,1.65-2.07,10.77,10.77,0,0,1,2.09-1.72,10.65,10.65,0,0,1,2.61-1.19,10.93,10.93,0,0,1,3.22-.44q5.22,0,8.06,3.17a12.35,12.35,0,0,1,2.84,8.54V367h-7.09V349.69a8.05,8.05,0,0,0-1.7-5.5,6.07,6.07,0,0,0-4.81-1.93,6.55,6.55,0,0,0-5,2,7.71,7.71,0,0,0-1.9,5.56V367h-7.09Z" transform="translate(-168 -227.07)"/><path class="cls-3" d="M370.8,367.6a13.91,13.91,0,0,1-5.29-1A13.26,13.26,0,0,1,361,363.5a15.48,15.48,0,0,1-3.2-5,17.5,17.5,0,0,1-1.22-6.75v-.12a17.91,17.91,0,0,1,1.19-6.75,15.1,15.1,0,0,1,3.16-5,13.19,13.19,0,0,1,4.55-3.06,14.07,14.07,0,0,1,5.31-1,11.3,11.3,0,0,1,6.26,1.62,17.13,17.13,0,0,1,4.18,3.75V324.83h7.09V367H381.2l.06-5.08a15.85,15.85,0,0,1-4.21,4A11.08,11.08,0,0,1,370.8,367.6Zm1.66-6.06a8.48,8.48,0,0,0,3.36-.69,8.35,8.35,0,0,0,2.84-2,9.88,9.88,0,0,0,1.94-3.09,10.52,10.52,0,0,0,.72-4v-.12a10.76,10.76,0,0,0-.72-4,9.48,9.48,0,0,0-1.94-3.09,8.62,8.62,0,0,0-6.2-2.65,8.72,8.72,0,0,0-3.39.66,8.23,8.23,0,0,0-2.81,1.93,9.08,9.08,0,0,0-1.91,3.09,11.33,11.33,0,0,0-.69,4.07v.12a11.16,11.16,0,0,0,.69,4,9.07,9.07,0,0,0,1.91,3.09,8.6,8.6,0,0,0,2.81,2A8.42,8.42,0,0,0,372.45,361.54Z" transform="translate(-168 -227.07)"/><path class="cls-3" d="M411.66,367.66a16.74,16.74,0,0,1-6.48-1.24A16.1,16.1,0,0,1,400,363a15.27,15.27,0,0,1-3.4-5,15.52,15.52,0,0,1-1.22-6.12v-.12a15.38,15.38,0,0,1,1.25-6.18,16,16,0,0,1,3.43-5.05,16.28,16.28,0,0,1,5.17-3.43,16.58,16.58,0,0,1,6.54-1.27,16.94,16.94,0,0,1,6.54,1.24,15.9,15.9,0,0,1,5.17,3.41,15.68,15.68,0,0,1,3.4,5,15.46,15.46,0,0,1,1.22,6.15v.12a15.23,15.23,0,0,1-1.25,6.12,16,16,0,0,1-3.43,5,16.18,16.18,0,0,1-5.2,3.43A16.8,16.8,0,0,1,411.66,367.66Zm.12-6.06a9.14,9.14,0,0,0,3.84-.78,8.93,8.93,0,0,0,2.92-2.11,9.11,9.11,0,0,0,1.85-3.09,10.89,10.89,0,0,0,.64-3.72v-.12a10.47,10.47,0,0,0-.69-3.81,9.56,9.56,0,0,0-1.94-3.12,9.28,9.28,0,0,0-2.95-2.11,9.58,9.58,0,0,0-7.57,0,9.15,9.15,0,0,0-2.92,2.08,8.77,8.77,0,0,0-1.85,3.09,11.13,11.13,0,0,0-.63,3.75v.12a10.23,10.23,0,0,0,.69,3.78,10,10,0,0,0,1.93,3.12,9.06,9.06,0,0,0,2.95,2.14A8.86,8.86,0,0,0,411.78,361.6Z" transform="translate(-168 -227.07)"/><path class="cls-3" d="M435.26,336.49h7.09v4.78A17.19,17.19,0,0,1,444,339.2a10.77,10.77,0,0,1,2.09-1.72,10.65,10.65,0,0,1,2.61-1.19,10.93,10.93,0,0,1,3.22-.44q5.22,0,8.06,3.17a12.35,12.35,0,0,1,2.84,8.54V367h-7.09V349.69a8.05,8.05,0,0,0-1.7-5.5,6.07,6.07,0,0,0-4.81-1.93,6.55,6.55,0,0,0-5,2,7.71,7.71,0,0,0-1.9,5.56V367h-7.09Z" transform="translate(-168 -227.07)"/><path class="cls-3" d="M485.37,367.66a16.48,16.48,0,0,1-6.19-1.15,14.79,14.79,0,0,1-8.34-8.22,16.48,16.48,0,0,1-1.22-6.44v-.12a17.11,17.11,0,0,1,1.1-6.18,15.48,15.48,0,0,1,3.11-5,14.65,14.65,0,0,1,4.74-3.41,14.47,14.47,0,0,1,6-1.24,14.68,14.68,0,0,1,6.42,1.33,13.21,13.21,0,0,1,4.59,3.58,15.53,15.53,0,0,1,2.76,5.22,20.88,20.88,0,0,1,.93,6.26c0,.31,0,.63,0,1s0,.66-.09,1H476.65a8.51,8.51,0,0,0,8.84,7.73A10.34,10.34,0,0,0,490,361a14.72,14.72,0,0,0,3.78-2.71l4.13,3.64a17,17,0,0,1-5.26,4.16A15.87,15.87,0,0,1,485.37,367.66Zm7-18.07a11.91,11.91,0,0,0-.75-3.15A8.07,8.07,0,0,0,490,343.9a7.48,7.48,0,0,0-2.35-1.7,7.31,7.31,0,0,0-3.11-.63,7.12,7.12,0,0,0-5.38,2.22,10,10,0,0,0-2.59,5.8Z" transform="translate(-168 -227.07)"/><path class="cls-3" d="M516.93,367.54a20.63,20.63,0,0,1-6.71-1.17,21.47,21.47,0,0,1-6.31-3.44l3.14-4.74a20.43,20.43,0,0,0,5.09,2.8,14.36,14.36,0,0,0,5,1,6,6,0,0,0,3.52-.89,2.8,2.8,0,0,0,1.25-2.39v-.12a2.21,2.21,0,0,0-.55-1.5,4.64,4.64,0,0,0-1.51-1.09,17.83,17.83,0,0,0-2.21-.87l-2.59-.81q-1.69-.46-3.4-1.09a12.39,12.39,0,0,1-3.08-1.64,8.2,8.2,0,0,1-2.24-2.51,7.22,7.22,0,0,1-.87-3.69v-.12a8.54,8.54,0,0,1,3.17-6.79,10.41,10.41,0,0,1,3.49-1.84,14.12,14.12,0,0,1,4.27-.63,19.45,19.45,0,0,1,5.87.93,21,21,0,0,1,5.41,2.57l-2.79,5a23.61,23.61,0,0,0-4.48-2.11,13,13,0,0,0-4.19-.78,5.12,5.12,0,0,0-3.17.86,2.64,2.64,0,0,0-1.13,2.19v.12a2,2,0,0,0,.58,1.41,5.72,5.72,0,0,0,1.54,1.09,17.28,17.28,0,0,0,2.21.92q1.25.43,2.59.83,1.69.52,3.37,1.21a14.24,14.24,0,0,1,3.05,1.7,8.47,8.47,0,0,1,2.24,2.45,6.66,6.66,0,0,1,.87,3.51V358a9.48,9.48,0,0,1-.87,4.21,8.24,8.24,0,0,1-2.41,3,10.84,10.84,0,0,1-3.63,1.79A16.09,16.09,0,0,1,516.93,367.54Z" transform="translate(-168 -227.07)"/><path class="cls-3" d="M535.59,325.18h7.61v6.64h-7.61Zm.29,11.31H543V367h-7.09Z" transform="translate(-168 -227.07)"/><path class="cls-3" d="M570.87,367v-3.75a13.09,13.09,0,0,1-4,3.12,12.73,12.73,0,0,1-5.93,1.27,14.18,14.18,0,0,1-4.18-.61,10.33,10.33,0,0,1-3.46-1.79,8.68,8.68,0,0,1-3.28-7v-.12a9.83,9.83,0,0,1,.93-4.42,8.63,8.63,0,0,1,2.59-3.12,11.33,11.33,0,0,1,4-1.85,19.41,19.41,0,0,1,5-.61,27.63,27.63,0,0,1,4.74.35,28.82,28.82,0,0,1,3.75.92v-.58a6,6,0,0,0-1.95-4.85,8.37,8.37,0,0,0-5.61-1.67,18.89,18.89,0,0,0-4.65.52,30.65,30.65,0,0,0-4.13,1.38l-1.92-5.6a32.52,32.52,0,0,1,5.23-1.85,26.08,26.08,0,0,1,6.45-.69q6.86,0,10.17,3.38t3.31,9.5V367Zm.17-12.76a18.15,18.15,0,0,0-3.17-.87A20.82,20.82,0,0,0,564,353a9.09,9.09,0,0,0-5.17,1.27,4,4,0,0,0-1.86,3.46v.12a3.78,3.78,0,0,0,1.71,3.35,7.37,7.37,0,0,0,4.21,1.15,10.78,10.78,0,0,0,3.23-.46,8.35,8.35,0,0,0,2.59-1.3,5.93,5.93,0,0,0,1.71-2,5.64,5.64,0,0,0,.61-2.62Z" transform="translate(-168 -227.07)"/><path class="cls-3" d="M274.52,365.58c1.26-4,3.76-18.16-1.48-24.61-6.18-7.6-9.5-9.86-19.24-15s-12.95-7.84-17-13.07a36.68,36.68,0,0,1-5.7-12s-6.29,22.1-3.21,33.5,9,16.46,7.13,17.24a22.82,22.82,0,0,1-3.52.77,32.34,32.34,0,1,1,11.71-62.78,15.24,15.24,0,0,0,20.19-14.45c0-5.08-1.34-11.58-11.23-14.67-9.51-2.83-15.13-3.16-19.89-3.16a62.72,62.72,0,1,0,41.16,110A4,4,0,0,0,274.52,365.58Z" transform="translate(-168 -227.07)"/><g class="cls-4"><circle class="cls-5" cx="146.29" cy="67.48" r="52.6"/></g><g class="cls-6"><circle class="cls-7" cx="85.15" cy="76.6" r="76.6"/><circle class="cls-8" cx="88.36" cy="82.92" r="52.6"/></g><circle class="cls-2" cx="102.91" cy="81.19" r="15.7"/><rect id="_Slice_" data-name="&lt;Slice&gt;" class="cls-1" y="29.93" width="412.5" height="128"/></svg>